<?xml version="1.0" encoding="UTF-8"?><svg xmlns="http://www.w3.org/2000/svg" viewBox="0 0 1232.17 373.63"><defs><style>.d{fill:#f19600;}.e{fill:#091c46;}.f{fill:#4d4d4d;}.g{fill:#ee4c83;}.h{fill:#999;}.i{fill:#00a7d5;}.j{fill:#017da8;}.k{fill:#c83264;}.l{fill:#666;}</style></defs><g id="a"/><g id="b"><g id="c"><g><polyline class="i" points="81.43 251.39 36.76 120.56 117.79 0 81.43 251.39 81.43 251.39 36.76 120.56"/><polyline class="k" points="136.76 3.95 204 98.03 117 180.62 136.76 3.95"/><polygon class="e" points="281.43 322.54 0 373.63 81.43 251.39 281.43 322.54"/><polygon class="g" points="257.72 55.34 218.98 118.58 136.76 3.95 257.72 55.34"/><polygon class="d" points="279.85 293.18 143.09 241.91 257.72 55.34 279.85 293.18"/><polygon class="j" points="36.76 120.56 81.43 251.39 0 373.63 36.76 120.56"/></g><g><g><path class="i" d="M329.75,112.87c0-14.47-.08-27.88-.23-40.24-.15-12.36-.38-22.3-.68-29.84l40.02,.9c-.45,5.43-.87,11.72-1.24,18.88-.38,7.16-.68,14.77-.9,22.83-.23,8.06-.42,16.43-.57,25.09-.15,8.67-.3,17.26-.45,25.77-.15,8.52-.23,16.77-.23,24.76v22.16l-35.72-70.31Z"/><path class="j" d="M350.1,229.3l-21.25-19.44c.15-6.03,.26-12.81,.34-20.35,.07-7.53,.15-15.56,.23-24.08,.07-8.51,.15-17.22,.23-26.11,.07-8.89,.11-17.71,.11-26.45l35.72,70.31"/><path class="e" d="M365.47,183.18c8.89-2.86,18.61-6.9,29.16-12.1,10.55-5.2,21.21-11.34,31.99-18.42,10.77-7.08,21.21-15.15,31.31-24.19,10.1-9.04,18.99-18.84,26.68-29.39l22.61,30.07c-10.1,11.3-20.69,21.82-31.76,31.54-11.08,9.72-22.99,18.76-35.72,27.13-12.74,8.36-26.49,15.98-41.26,22.83-14.77,6.86-30.9,13.07-48.38,18.65"/></g><g><path class="d" d="M713.05,66.48l19.67,16.96c-6.48,21.25-13.87,39.98-22.16,56.18-8.29,16.2-18.12,30.33-29.5,42.39-11.38,12.06-24.64,22.46-39.79,31.2-15.15,8.74-32.89,16.28-53.24,22.61l-33.23-33.46c21.4-3.46,39.68-8.66,54.82-15.6,15.15-6.93,27.84-14.96,38.09-24.08,10.25-9.12,18.43-18.88,24.53-29.28,6.1-10.4,10.81-20.72,14.13-30.97h-.53"/><path class="g" d="M686.5,102.52c-9.61,0-18.85,.08-27.73,.23-9.04,.15-19.14,.45-30.29,.9l-16.05-42.28c4.52-8.89,7.91-17.26,10.17-25.09l37.08,11.3c-1.51,3.47-2.98,6.86-4.41,10.17-1.43,3.32-2.98,6.63-4.64,9.95,11.3,0,22.53-.11,33.69-.34,11.15-.23,20.95-.49,29.39-.79"/><path class="k" d="M628.49,103.65c-6.93,9.35-15.19,18.28-24.76,26.79-9.57,8.52-20.46,16.47-32.67,23.85l-33.01-26.22c12.21-4.52,23.06-10.36,32.55-17.52,9.5-7.16,17.71-14.92,24.64-23.29,6.93-8.36,12.66-16.99,17.18-25.89"/></g><g><path class="l" d="M816.35,149.04c-6.71-7.69-13.15-14.39-19.33-20.12l33.91-17.18c3.92,3.47,7.91,7.31,11.98,11.53,4.07,4.22,8.21,8.67,12.43,13.34,11.15-9.04,20.76-18.16,28.82-27.36,8.06-9.19,14.96-17.78,20.69-25.77l37.3-34.59,19.89,20.8c-13.72,19.14-27.47,36.4-41.26,51.77-13.79,15.37-28.07,29.54-42.84,42.5"/><path class="f" d="M877.95,163.97c4.82,6.03,9.46,12.21,13.9,18.54,4.44,6.33,8.7,12.74,12.77,19.22l-37.3,21.48c-3.62-7.69-8.18-15.86-13.68-24.53-5.5-8.66-11.42-17.18-17.75-25.55-6.33-8.36-12.85-16.39-19.55-24.08"/><path class="h" d="M904.85,83.48c-10.1,.15-21.48,.26-34.14,.34-12.66,.08-25.36,.23-38.09,.45-12.74,.23-25.06,.49-36.96,.79-11.91,.3-22.31,.68-31.2,1.13l-.9-36.62c5.73,0,12.21,.04,19.44,.11,7.23,.08,14.92,.15,23.06,.23,8.14,.08,16.62,.15,25.43,.23,8.82,.08,17.6,.11,26.34,.11s17.33-.04,25.77-.11c8.44-.07,16.31-.15,23.63-.23,7.31-.07,13.98-.23,20.01-.45,6.03-.23,11-.41,14.92-.56"/></g><g><path class="l" d="M1120.17,142.6c-.45,15.68-.64,31.73-.56,48.15,.07,16.43,.49,31.72,1.24,45.89h-37.75c.3-10.4,.53-21.17,.68-32.33,.15-11.15,.23-22.46,.23-33.91-9.04,6.03-18.73,11.68-29.05,16.96-10.33,5.28-21.22,9.95-32.67,14.02l-29.39-29.84c15.37-3.76,29.28-8.44,41.71-14.02"/><path class="f" d="M1034.6,157.52c12.43-5.57,23.55-11.53,33.35-17.86,9.8-6.33,18.35-12.77,25.66-19.33,7.31-6.56,13.45-12.62,18.43-18.2l38.66-34.82,18.54,17.41c-5.73,9.35-12.66,18.92-20.8,28.71-8.14,9.8-17.56,19.52-28.26,29.16"/><path class="h" d="M1112.03,102.13c-32.86-.3-63.07,.15-90.66,1.36l-1.36-35.95c6.33,.3,13.45,.53,21.36,.68,7.91,.15,16.39,.23,25.43,.23h16.96c0-5.43-.04-11.19-.11-17.29-.08-6.11-.34-11.34-.79-15.71l37.75,.45c-.3,3.77-.53,8.67-.68,14.69-.15,6.03-.15,11.83,0,17.41,5.73-.15,11.19-.26,16.39-.34,5.2-.07,9.98-.19,14.36-.34"/><path class="h" d="M1195.58,194.43c-3.62-3.16-8.03-6.74-13.23-10.74-5.2-3.99-10.55-7.95-16.05-11.87-5.5-3.92-10.89-7.61-16.16-11.08-5.28-3.46-9.8-6.18-13.56-8.14l24.87-24.42c4.07,2.26,8.63,4.9,13.68,7.91,5.05,3.02,10.21,6.22,15.49,9.61,5.27,3.39,10.36,6.75,15.26,10.06,4.9,3.32,9.16,6.41,12.77,9.27l-23.06,29.39Z"/></g></g><g><path d="M324.56,326.62v7.02h-5.04v-43.36h5.04v30.94h2.94v-39.52h5.46v39.52h3.06v-30.94h5.04v36.34h-16.49Zm44.13,9.05c-2.28-1.16-4.48-2.52-6.6-4.08-2.12-1.56-4-3.14-5.64-4.74-1.84,1.6-4.05,3.21-6.63,4.83s-5.27,2.95-8.07,3.99l-3.66-5.58c1.4-.44,2.8-.93,4.2-1.47,1.4-.54,2.75-1.13,4.05-1.77,1.3-.64,2.53-1.31,3.69-2.01,1.16-.7,2.16-1.39,3-2.07-1.36-1.64-2.58-3.19-3.66-4.65-1.08-1.46-2-2.75-2.76-3.87-.88-1.32-1.66-2.54-2.34-3.66l4.62-2.7c.56,1.08,1.2,2.24,1.92,3.48,.64,1.04,1.44,2.23,2.4,3.57,.96,1.34,2.06,2.71,3.3,4.11,1.36-1.48,2.46-2.91,3.3-4.29,.84-1.38,1.52-2.63,2.04-3.75,.6-1.32,1.04-2.54,1.32-3.66h-20.15v-5.16h9.65v-8.58h-9.95v-5.16h9.95v-6.78h5.76v6.78h12.35v5.16h-12.35v8.58h10.67v5.16c-.48,1.6-1.12,3.28-1.92,5.04-.68,1.52-1.6,3.21-2.76,5.07-1.16,1.86-2.62,3.75-4.38,5.67,.68,.6,1.48,1.21,2.4,1.83,.92,.62,1.92,1.22,3,1.8,1.08,.58,2.2,1.15,3.36,1.71,1.16,.56,2.32,1.08,3.48,1.56l-3.6,5.64Z"/><path d="M428.78,335.68c-2.88-1.72-5.54-3.65-7.98-5.79-2.44-2.14-4.63-4.39-6.57-6.75-1.94-2.36-3.62-4.77-5.04-7.23-1.42-2.46-2.57-4.85-3.45-7.17-.68,2.52-1.72,5.05-3.12,7.58-1.4,2.54-3.12,4.99-5.16,7.35-2.04,2.36-4.36,4.57-6.96,6.63-2.6,2.06-5.42,3.85-8.46,5.37l-3.78-5.64c4.16-1.88,7.67-4.03,10.52-6.45,2.86-2.42,5.21-4.94,7.05-7.56,1.84-2.62,3.23-5.24,4.17-7.86,.94-2.62,1.55-5.03,1.83-7.23h-22.19v-5.52h22.43v-13.73h6.24v13.73h22.49v5.52h-22.19c.84,3.36,2.24,6.72,4.2,10.07,.84,1.44,1.85,2.96,3.03,4.56,1.18,1.6,2.56,3.21,4.14,4.83,1.58,1.62,3.38,3.23,5.4,4.83,2.02,1.6,4.31,3.14,6.87,4.62l-3.48,5.82Z"/><path d="M438.85,333.1v-5.52h25.07v-11.75h-17.03v-5.4h17.03v-11.03h-13.07c-.84,1.44-1.64,2.71-2.4,3.81-.76,1.1-1.44,2.05-2.04,2.85-.72,.92-1.38,1.7-1.98,2.34l-5.28-4.08c1.52-1.48,2.98-3.2,4.38-5.16,1.2-1.68,2.46-3.71,3.78-6.09,1.32-2.38,2.44-5.07,3.36-8.07l6,1.2c-.44,1.32-.92,2.65-1.44,3.99-.52,1.34-1.08,2.61-1.68,3.81h10.37v-12.29h6.24v12.29h17.99v5.4h-17.99v11.03h15.59v5.4h-15.59v11.75h21.47v5.52h-52.77Z"/><path d="M551.29,308.45c0,2.76-.46,5.49-1.38,8.18-.92,2.7-2.31,5.16-4.17,7.38s-4.2,4.13-7.02,5.73-6.11,2.66-9.86,3.18l-3.72-6.12c3.24-.08,6.09-.68,8.55-1.8,2.46-1.12,4.52-2.58,6.18-4.38,1.66-1.8,2.91-3.82,3.75-6.06,.84-2.24,1.26-4.52,1.26-6.84,0-1.92-.31-3.8-.93-5.64-.62-1.84-1.55-3.51-2.79-5.01-1.24-1.5-2.81-2.76-4.71-3.78-1.9-1.02-4.13-1.67-6.69-1.95-.4,2.64-.97,5.54-1.71,8.7-.74,3.16-1.59,6.28-2.55,9.35-.96,3.08-1.98,5.96-3.06,8.63-1.08,2.68-2.18,4.84-3.3,6.48-1.32,1.96-2.82,3.45-4.5,4.47-1.68,1.02-3.38,1.53-5.1,1.53-1.84,0-3.57-.63-5.19-1.89-1.62-1.26-2.89-3.21-3.81-5.85-1.04-2.92-1.56-6.02-1.56-9.29s.54-6.48,1.62-9.71c1.08-3.24,2.73-6.18,4.95-8.82,2.22-2.64,5.03-4.81,8.43-6.51,3.4-1.7,7.44-2.63,12.11-2.79h1.14c4,0,7.5,.64,10.49,1.92s5.51,2.99,7.53,5.13c2.02,2.14,3.53,4.58,4.53,7.32,1,2.74,1.5,5.55,1.5,8.43Zm-28.06-17.15c-2.92,.4-5.51,1.3-7.77,2.7-2.26,1.4-4.16,3.09-5.7,5.07-1.54,1.98-2.71,4.17-3.51,6.57-.8,2.4-1.2,4.8-1.2,7.2,0,2.56,.46,5,1.38,7.32,.92,2.32,2.12,3.48,3.6,3.48,1.24,0,2.46-.9,3.66-2.7,1.04-1.6,2.06-3.57,3.06-5.91,1-2.34,1.93-4.85,2.79-7.53,.86-2.68,1.62-5.42,2.28-8.21,.66-2.8,1.13-5.46,1.41-7.98Z"/><path d="M589.61,296.88c-1.68,.16-3.55,.31-5.61,.45-2.06,.14-4.19,.27-6.39,.39-1.6,6.32-3.41,12.64-5.43,18.98-2.02,6.34-4.17,12.38-6.45,18.14l-6.3-3.3c.96-1.96,1.97-4.22,3.03-6.78s2.12-5.3,3.18-8.22c1.06-2.92,2.08-5.96,3.06-9.11,.98-3.16,1.87-6.3,2.67-9.42-1.68,.08-3.31,.14-4.89,.18-1.58,.04-3.05,.08-4.41,.12l-.3-5.94c.72,.08,1.53,.12,2.43,.12h5.61c.92,0,1.88-.02,2.88-.06,.4-1.8,.74-3.55,1.02-5.25,.28-1.7,.5-3.37,.66-5.01l6.6,.54c-.32,1.52-.65,3.06-.99,4.62-.34,1.56-.69,3.16-1.05,4.8,2.04-.12,4-.27,5.88-.45s3.58-.39,5.1-.63l-.3,5.82Zm12.38,36.07c-2.34,.1-4.53,.15-6.57,.15-1.04,0-2.03-.02-2.97-.06-.94-.04-1.77-.1-2.49-.18-3.64-.4-6.24-1.39-7.8-2.97-1.56-1.58-2.34-3.63-2.34-6.15,0-1.72,.3-3.56,.9-5.52l5.82,.96c-.48,1.32-.72,2.44-.72,3.36,0,.84,.17,1.54,.51,2.1,.34,.56,.78,1.01,1.32,1.35,.54,.34,1.15,.59,1.83,.75,.68,.16,1.36,.26,2.04,.3,.44,.04,.89,.06,1.35,.06h1.53c1.04,0,2.15-.02,3.33-.06,1.18-.04,2.38-.1,3.6-.18,1.22-.08,2.43-.18,3.63-.3s2.34-.26,3.42-.42l.42,6.42c-2.2,.16-4.47,.29-6.81,.39Zm5.73-25.04c-1.8-.2-3.66-.35-5.58-.45-1.92-.1-3.86-.15-5.82-.15-4,0-7.86,.18-11.57,.54l-.36-5.82c1.76-.08,3.55-.15,5.37-.21,1.82-.06,3.67-.09,5.55-.09,2.16,0,4.29,.03,6.39,.09,2.1,.06,4.19,.17,6.27,.33l-.24,5.76Z"/><path d="M671.94,312.11c0,2.6-.48,5.19-1.44,7.77-.96,2.58-2.41,4.9-4.35,6.96-1.94,2.06-4.37,3.75-7.29,5.07s-6.34,2.04-10.25,2.16l-3-6.66c.92,.12,1.8,.18,2.64,.18,2.56,0,4.91-.44,7.05-1.32,2.14-.88,3.98-2.06,5.52-3.54,1.54-1.48,2.74-3.16,3.6-5.04,.86-1.88,1.29-3.84,1.29-5.88,0-1.52-.25-3.02-.75-4.5-.5-1.48-1.29-2.9-2.37-4.26-1.32-1.68-2.99-2.95-5.01-3.81-2.02-.86-4.21-1.33-6.57-1.41-1.24,4.12-2.57,7.97-3.99,11.54-1.42,3.58-2.89,6.83-4.41,9.75,.64,1.08,1.28,2.06,1.92,2.94l-4.38,4.98c-.2-.32-.39-.64-.57-.96s-.37-.64-.57-.96l-.54,.72c-1.52,2.04-3.16,3.54-4.92,4.5-1.76,.96-3.48,1.44-5.16,1.44-1.2,0-2.34-.25-3.42-.75-1.08-.5-2.03-1.23-2.85-2.19-.82-.96-1.46-2.15-1.92-3.57-.46-1.42-.69-3.03-.69-4.83,0-1.4,.15-2.89,.45-4.47,.3-1.58,.79-3.29,1.47-5.13,.76-2.04,1.71-3.9,2.85-5.58,1.14-1.68,2.45-3.22,3.93-4.62-.68-2.08-1.29-4.18-1.83-6.3-.54-2.12-1.05-4.3-1.53-6.54l5.82-1.5c.32,1.68,.69,3.4,1.11,5.16,.42,1.76,.89,3.54,1.41,5.34,1.96-1.16,4.05-2.11,6.27-2.85,2.22-.74,4.43-1.23,6.63-1.47,.72-3.08,1.32-6.2,1.8-9.35l6.6,1.2c-.32,1.36-.64,2.72-.96,4.08-.32,1.36-.66,2.7-1.02,4.02,3.04,.28,5.89,1.03,8.55,2.25,2.66,1.22,4.89,2.93,6.69,5.13,1.4,1.72,2.45,3.63,3.15,5.73,.7,2.1,1.05,4.29,1.05,6.57Zm-36.16,7.2c-2.08-4.04-3.92-8.28-5.52-12.71-1.52,1.64-2.64,3.5-3.36,5.58-.56,1.52-.96,2.93-1.2,4.23-.24,1.3-.36,2.47-.36,3.51,0,1.8,.31,3.17,.93,4.11,.62,.94,1.43,1.41,2.43,1.41,.8,0,1.66-.29,2.58-.87,.92-.58,1.84-1.49,2.76-2.73,.32-.36,.61-.75,.87-1.17,.26-.42,.55-.87,.87-1.35Zm8.82-20.87c-1.68,.36-3.33,.87-4.95,1.53-1.62,.66-3.17,1.47-4.65,2.43,.64,1.84,1.32,3.64,2.04,5.4,.72,1.76,1.48,3.48,2.28,5.16,1.04-2.16,1.99-4.46,2.85-6.9,.86-2.44,1.67-4.98,2.43-7.62Z"/><path d="M731.19,308.45c0,2.76-.46,5.49-1.38,8.18-.92,2.7-2.31,5.16-4.17,7.38-1.86,2.22-4.2,4.13-7.02,5.73s-6.11,2.66-9.86,3.18l-3.72-6.12c3.24-.08,6.09-.68,8.54-1.8,2.46-1.12,4.52-2.58,6.18-4.38,1.66-1.8,2.91-3.82,3.75-6.06,.84-2.24,1.26-4.52,1.26-6.84,0-1.92-.31-3.8-.93-5.64-.62-1.84-1.55-3.51-2.79-5.01s-2.81-2.76-4.71-3.78c-1.9-1.02-4.13-1.67-6.69-1.95-.4,2.64-.97,5.54-1.71,8.7-.74,3.16-1.59,6.28-2.55,9.35-.96,3.08-1.98,5.96-3.06,8.63-1.08,2.68-2.18,4.84-3.3,6.48-1.32,1.96-2.82,3.45-4.5,4.47-1.68,1.02-3.38,1.53-5.1,1.53-1.84,0-3.57-.63-5.19-1.89-1.62-1.26-2.89-3.21-3.81-5.85-1.04-2.92-1.56-6.02-1.56-9.29s.54-6.48,1.62-9.71c1.08-3.24,2.73-6.18,4.95-8.82,2.22-2.64,5.03-4.81,8.43-6.51,3.4-1.7,7.44-2.63,12.11-2.79h1.14c4,0,7.5,.64,10.49,1.92s5.51,2.99,7.53,5.13,3.53,4.58,4.53,7.32c1,2.74,1.5,5.55,1.5,8.43Zm-28.06-17.15c-2.92,.4-5.51,1.3-7.77,2.7-2.26,1.4-4.16,3.09-5.7,5.07-1.54,1.98-2.71,4.17-3.51,6.57-.8,2.4-1.2,4.8-1.2,7.2,0,2.56,.46,5,1.38,7.32,.92,2.32,2.12,3.48,3.6,3.48,1.24,0,2.46-.9,3.66-2.7,1.04-1.6,2.06-3.57,3.06-5.91,1-2.34,1.93-4.85,2.79-7.53,.86-2.68,1.62-5.42,2.28-8.21,.66-2.8,1.13-5.46,1.41-7.98Z"/><path d="M789.71,335.68c-2.12-.28-4.29-.73-6.51-1.35-2.22-.62-4.03-1.27-5.43-1.95-1.8,.76-4.03,1.42-6.69,1.98-2.66,.56-5.47,1-8.43,1.32l-2.04-4.92h.9c2,0,4-.09,6-.27s3.68-.43,5.04-.75c-1-.6-1.99-1.33-2.97-2.19-.98-.86-1.69-1.55-2.13-2.07-.48,.4-1.07,.85-1.77,1.35-.7,.5-1.39,.95-2.07,1.35l-3.9-3.78c2.16-.8,4.03-1.79,5.61-2.97,1.58-1.18,2.75-2.23,3.51-3.15h-4.08v-12.71c-.32,.32-.67,.61-1.05,.87-.38,.26-.73,.49-1.05,.69l-3.54-4.5c2.56-1.36,4.57-2.78,6.03-4.26,1.46-1.48,2.43-2.6,2.91-3.36h-9.89l3.96,1.92c-1.12,2.04-2.28,3.84-3.48,5.4-1.2,1.56-2.3,2.86-3.3,3.9-1.16,1.24-2.28,2.3-3.36,3.18l-3.66-4.56c.96-.6,1.96-1.36,3-2.28,.88-.8,1.83-1.82,2.85-3.06,1.02-1.24,2.01-2.74,2.97-4.5h-9.17v4.56c0,3-.05,6.11-.15,9.32-.1,3.22-.37,6.49-.81,9.8,.16-.12,.6-.46,1.32-1.02,.72-.56,1.6-1.36,2.64-2.4s2.15-2.33,3.33-3.87c1.18-1.54,2.29-3.35,3.33-5.43l4.68,2.52c-.56,1.16-1.15,2.3-1.77,3.42-.62,1.12-1.27,2.14-1.95,3.06v20.69h-5.88v-14.33c-.2,.32-.45,.63-.75,.93-.3,.3-.57,.57-.81,.81l-.84,.84-3.3-5.1c-.4,3-.95,5.92-1.65,8.75-.7,2.84-1.63,5.52-2.79,8.04l-4.98-4.26c1.08-1.84,1.92-4.03,2.52-6.57,.6-2.54,1.05-5.23,1.35-8.07,.3-2.84,.48-5.74,.54-8.69,.06-2.96,.09-5.78,.09-8.46v-16.49h47.13v11.93h-17.99l2.88,.9c-.04,.12-.14,.26-.3,.42-.12,.16-.26,.34-.42,.54-.16,.2-.34,.42-.54,.66h18.47v3.24h-21.35c-.32,.36-.69,.75-1.11,1.17s-.83,.79-1.23,1.11h21.77v15.23h-14.57c-.2,.32-.42,.62-.66,.9-.24,.28-.46,.54-.66,.78-.2,.28-.42,.54-.66,.78h15.95v2.7c-.2,.4-.52,.86-.96,1.38-.44,.52-.95,1.07-1.53,1.65-.58,.58-1.22,1.16-1.92,1.74-.7,.58-1.41,1.11-2.13,1.59,.56,.12,1.24,.24,2.04,.36s1.66,.23,2.58,.33c.92,.1,1.83,.18,2.73,.24,.9,.06,1.71,.09,2.43,.09l-2.34,4.86Zm-6.36-48.45h-35.38v3.66h35.38v-3.66Zm.42,19.19h-13.37v2.58h13.37v-2.58Zm0,5.7h-13.37v2.82h13.37v-2.82Zm-11.27,12.17c.44,.56,1.1,1.16,1.98,1.8,.88,.64,1.92,1.28,3.12,1.92,.76-.4,1.43-.82,2.01-1.26,.58-.44,1.07-.84,1.47-1.2,.44-.44,.84-.86,1.2-1.26h-9.77Z"/><path d="M803.68,335.68v-31.84c-.32,.64-.69,1.24-1.11,1.8-.42,.56-.79,1.06-1.11,1.5-.4,.52-.8,1-1.2,1.44l-2.1-6.3c1.48-1.68,2.88-3.58,4.2-5.7,1.16-1.8,2.33-3.96,3.51-6.48,1.18-2.52,2.15-5.3,2.91-8.34l5.16,2.46c-.52,1.76-1.23,3.6-2.13,5.52s-1.79,3.72-2.67,5.4v40.54h-5.46Zm9.05-7.86v-32.92h5.28v32.92h-5.28Zm36.64-19.85c-2.92-.8-5.53-1.76-7.83-2.88-2.3-1.12-4.41-2.34-6.33-3.66-1.64,1.36-3.63,2.66-5.97,3.9-2.34,1.24-4.95,2.26-7.83,3.06l-3-4.92c2.64-.6,4.97-1.32,6.99-2.16,2.02-.84,3.71-1.76,5.07-2.76-1.04-.72-2.06-1.61-3.06-2.67-1-1.06-1.82-1.99-2.46-2.79-.44,.44-.89,.86-1.35,1.26-.46,.4-.87,.76-1.23,1.08-.44,.36-.84,.68-1.2,.96l-4.2-4.14c1.44-.84,2.8-1.78,4.08-2.82,1.08-.92,2.18-2.02,3.3-3.3,1.12-1.28,1.96-2.74,2.52-4.38l5.76,.96c-.16,.4-.42,.85-.78,1.35-.36,.5-.72,.93-1.08,1.29h18.89v4.68h-4.2c-.36,.88-1.01,2.09-1.95,3.63-.94,1.54-2.27,3.15-3.99,4.83,1.6,.88,3.43,1.69,5.49,2.43,2.06,.74,4.41,1.35,7.05,1.83l-2.7,5.22Zm1.68,9.29c-1.96,2.76-4.34,5.34-7.14,7.74-1.2,1-2.56,2.03-4.08,3.09-1.52,1.06-3.2,2.07-5.04,3.03-1.84,.96-3.85,1.82-6.03,2.58-2.18,.76-4.53,1.38-7.05,1.86l-3.54-5.4c2.56-.4,4.92-.94,7.08-1.62,2.16-.68,4.15-1.44,5.97-2.28,1.82-.84,3.47-1.72,4.95-2.64,1.48-.92,2.78-1.84,3.9-2.76,2.68-2.16,4.88-4.46,6.6-6.9l4.38,3.3Zm-6.06-5.34c-1.52,1.76-3.36,3.48-5.52,5.16-1.84,1.44-4.11,2.93-6.81,4.47-2.7,1.54-5.87,2.87-9.5,3.99l-2.82-4.44c3.68-.92,6.82-2.04,9.41-3.36s4.76-2.62,6.48-3.9c2-1.48,3.66-3,4.98-4.56l3.78,2.64Zm-24.59,.72c2.64-.68,4.9-1.5,6.78-2.46,1.88-.96,3.46-1.88,4.74-2.76,1.48-1.04,2.7-2.1,3.66-3.18l3.66,3c-1.28,1.32-2.74,2.58-4.38,3.78-1.4,1.04-3.08,2.09-5.04,3.15-1.96,1.06-4.14,1.93-6.54,2.61l-2.88-4.14Zm9-22.61c.48,.76,1.19,1.62,2.13,2.58,.94,.96,2.07,1.9,3.39,2.82,1.04-.8,1.95-1.71,2.73-2.73,.78-1.02,1.33-1.91,1.65-2.67h-9.89Z"/><path d="M905.51,308.27v-6.48h-40.36v6.54h-5.82v-11.21h23.03v-3h4.2l-2.76-2.64c.2-.16,.4-.32,.6-.48,.2-.16,.42-.33,.66-.51s.46-.37,.66-.57h-7.62c.24,.32,.5,.68,.78,1.08,.28,.4,.56,.78,.84,1.14,.32,.44,.64,.86,.96,1.26l-5.1,2.64c-.28-.64-.6-1.32-.96-2.04-.32-.6-.65-1.26-.99-1.98-.34-.72-.71-1.42-1.11-2.1h-3.72c-.84,.96-1.65,1.8-2.43,2.52-.78,.72-1.49,1.34-2.13,1.86-.72,.6-1.42,1.1-2.1,1.5l-4.14-3.84c1.24-.68,2.48-1.52,3.72-2.52,1.04-.84,2.14-1.9,3.3-3.18,1.16-1.28,2.18-2.8,3.06-4.56l5.58,1.14c-.2,.4-.47,.84-.81,1.32-.34,.48-.63,.9-.87,1.26h14.15v4.02c.68-.8,1.46-1.84,2.34-3.12,.88-1.28,1.68-2.82,2.4-4.62l5.34,.96c-.16,.4-.34,.85-.54,1.35-.2,.5-.44,.97-.72,1.41h16.91v4.5h-9.29c.28,.32,.57,.68,.87,1.08,.3,.4,.59,.78,.87,1.14,.32,.44,.62,.88,.9,1.32l-5.7,2.58c-.2-.64-.44-1.32-.72-2.04-.24-.6-.52-1.26-.84-1.98-.32-.72-.7-1.42-1.14-2.1h-4.38c-.52,1-1.22,1.99-2.1,2.97-.88,.98-1.58,1.71-2.1,2.19v2.04h23.09v11.15h-5.82Zm-4.8,27.4v-2.22h-28.06v2.22h-5.82v-30.64h36.52v12.17h-30.7v3.36h33.88v15.11h-5.82Zm-3.18-26.44h-24.89v3.9h24.89v-3.9Zm3.18,15.47h-28.06v4.38h28.06v-4.38Z"/><path d="M938.07,324.64c-1.56,.56-3.3,1.16-5.22,1.8-1.68,.56-3.64,1.15-5.88,1.77-2.24,.62-4.72,1.27-7.44,1.95l-1.44-6c1.48-.32,2.84-.62,4.08-.9,1.24-.28,2.44-.58,3.6-.9v-14.45h-5.64v-5.4h5.64v-12.11h-6.36v-5.4h18.59v5.4h-6.36v12.11h5.58v5.4h-5.58v13.01c2.16-.68,3.78-1.22,4.86-1.62,.64-.24,1.16-.46,1.56-.66v6Zm-1.14,9.05v-5.4h14.99v-6.66h-11.75v-5.1h11.75v-5.58h-11.81v-27.22h29.92v27.22h-12.23v5.58h12.29v5.1h-12.29v6.66h14.15v5.4h-35.02Zm15.05-44.55h-6v5.94h6v-5.94Zm0,10.49h-6v6.54h6v-6.54Zm12.17-10.49h-6.42v5.94h6.42v-5.94Zm0,10.49h-6.42v6.54h6.42v-6.54Z"/><path d="M1026.13,301.89c-2.18-.02-4.53-.05-7.05-.09-.04,3.4-.28,6.73-.72,9.98-.44,3.26-1.32,6.33-2.64,9.21-1.32,2.88-3.21,5.51-5.67,7.89-2.46,2.38-5.75,4.37-9.87,5.97l-5.64-5.58c3.64-.84,6.63-2.08,8.96-3.72,2.34-1.64,4.2-3.63,5.58-5.97s2.34-5.01,2.88-8c.54-3,.83-6.26,.87-9.77h-16.37c0,2.68,0,5.28,.03,7.79,.02,2.52,.07,4.78,.15,6.78l-6.66,.12c.04-1.96,.07-4.2,.09-6.72,.02-2.52,.05-5.16,.09-7.92-2.48,.04-4.77,.07-6.87,.09-2.1,.02-3.91,.05-5.43,.09v-6c1.52,.08,3.32,.13,5.4,.15,2.08,.02,4.38,.03,6.9,.03,0-2.4-.01-4.66-.03-6.78-.02-2.12-.05-4.02-.09-5.7l6.6,.06c-.04,1.6-.07,3.48-.09,5.64-.02,2.16-.05,4.44-.09,6.84h16.37c0-1.84-.02-3.76-.06-5.76-.04-2-.12-4.28-.24-6.84l6.72-.06c-.08,2.52-.12,4.79-.12,6.81v5.79c2.44-.04,4.74-.07,6.9-.09,2.16-.02,4.14-.05,5.94-.09v5.94c-1.72-.04-3.67-.07-5.85-.09Z"/><path d="M1082.11,311.27c-2.64-.04-5.5-.07-8.58-.09-3.08-.02-6.28-.03-9.59-.03s-6.54,0-9.65,.03c-3.12,.02-6.02,.05-8.7,.09-2.68,.04-4.94,.08-6.78,.12v-6.6c1.08,.04,2.44,.07,4.08,.09,1.64,.02,3.48,.04,5.52,.06,2.04,.02,4.23,.03,6.57,.03h15.35c2.74,0,5.29,0,7.65-.03,2.36-.02,4.48-.04,6.36-.06,1.88-.02,3.34-.05,4.38-.09v6.6c-1.76-.04-3.96-.08-6.6-.12Z"/><path d="M1144.05,331.36c-1.44,.08-3.03,.16-4.77,.24-1.74,.08-3.56,.15-5.46,.21-1.9,.06-3.83,.1-5.79,.12-1.96,.02-3.88,.03-5.76,.03-2.2,0-4.27-.02-6.21-.06-1.94-.04-3.65-.1-5.13-.18-1.72-.08-3.16-.28-4.32-.6-1.16-.32-2.1-.79-2.82-1.41-.72-.62-1.23-1.4-1.53-2.34s-.45-2.09-.45-3.45v-.42c.04-1.24,.08-2.74,.12-4.5,.04-1.76,.07-3.67,.09-5.73,.02-2.06,.04-4.24,.06-6.54,.02-2.3,.03-4.59,.03-6.87,0-2.72-.02-5.36-.06-7.92-.04-2.56-.1-4.9-.18-7.02l7.08,.18c-.2,2.72-.35,5.62-.45,8.7-.1,3.08-.19,6.2-.27,9.35,2.4-.48,5.02-1.08,7.86-1.8,2.84-.72,5.66-1.53,8.46-2.43,2.8-.9,5.45-1.85,7.95-2.85,2.5-1,4.63-2,6.39-3l4.5,5.76c-2.56,1.08-5.31,2.11-8.25,3.09-2.94,.98-5.95,1.9-9.03,2.76-3.08,.86-6.15,1.67-9.2,2.43-3.06,.76-5.97,1.44-8.73,2.04,0,2.24,0,4.4,.03,6.48,.02,2.08,.05,4.02,.09,5.82,0,.76,.05,1.4,.15,1.92,.1,.52,.3,.94,.6,1.26,.3,.32,.71,.56,1.23,.72,.52,.16,1.2,.26,2.04,.3,.68,.04,1.49,.07,2.43,.09,.94,.02,1.97,.03,3.09,.03,2.04,0,4.31-.03,6.81-.09,2.5-.06,5-.16,7.5-.3,2.5-.14,4.86-.31,7.08-.51,2.22-.2,4.09-.44,5.61-.72l-.78,7.2Zm-2.1-38.32c-.92-1.04-1.9-2.1-2.94-3.18-1.04-1.08-2.1-2.08-3.18-3l3.3-2.76c1.04,.92,2.1,1.89,3.18,2.91,1.08,1.02,2.08,2.07,3,3.15l-3.36,2.88Zm6.06-3.36c-1.76-2.08-3.78-4.1-6.06-6.06l3.18-2.58c1.08,.92,2.14,1.86,3.18,2.82,1.04,.96,2.02,1.96,2.94,3l-3.24,2.82Z"/><path d="M1199.64,331.9c-2.4-2.8-5.14-5.53-8.22-8.19-3.08-2.66-6.14-5.07-9.17-7.23-2.76,3.08-5.92,6-9.47,8.75-3.56,2.76-7.67,5.4-12.35,7.92l-5.76-5.1c4.36-1.8,8.42-4.03,12.2-6.69,3.78-2.66,7.17-5.54,10.19-8.63,3.02-3.1,5.6-6.32,7.74-9.65s3.75-6.57,4.83-9.68h-3.06c-1.84,0-3.83,0-5.97,.03-2.14,.02-4.29,.05-6.45,.09-2.16,.04-4.29,.09-6.39,.15-2.1,.06-4.05,.13-5.85,.21v-6.6c2.32,.08,5.01,.14,8.07,.18s6.19,.06,9.38,.06c2.72,0,5.37-.02,7.95-.06,2.58-.04,4.91-.12,6.99-.24l3.9,3.18c-1.68,3.92-3.49,7.67-5.43,11.24-1.94,3.58-4.17,7.03-6.69,10.34,3.12,2,6.33,4.26,9.62,6.78s6.55,5.22,9.74,8.1l-5.82,5.04Z"/></g></g></g></svg>